<svg xmlns="http://www.w3.org/2000/svg" width="1200" height="630" viewBox="0 0 1200 630" role="img" aria-labelledby="title desc">
  <title id="title">pickflow</title>
  <desc id="desc">고민을 투표 링크로 공유하는 pickflow 기본 OG 이미지</desc>
  <defs>
    <linearGradient id="bg" x1="0" x2="1" y1="0" y2="1">
      <stop offset="0" stop-color="#061411"/>
      <stop offset="0.48" stop-color="#0b2520"/>
      <stop offset="1" stop-color="#08100f"/>
    </linearGradient>
    <linearGradient id="accent" x1="0" x2="1" y1="0" y2="0">
      <stop offset="0" stop-color="#12c8a6"/>
      <stop offset="0.58" stop-color="#e8c84d"/>
      <stop offset="1" stop-color="#ff6b70"/>
    </linearGradient>
  </defs>
  <rect width="1200" height="630" fill="url(#bg)"/>
  <path d="M0 520 C210 450 320 575 500 500 C690 420 785 315 1200 385 L1200 630 L0 630 Z" fill="#0f332c" opacity="0.58"/>
  <path d="M106 116 h122 c48 0 86 38 86 86 v0 c0 48-38 86-86 86 h-122 c-48 0-86-38-86-86 v0 c0-48 38-86 86-86Z" fill="#0e2a25" stroke="#275a4f" stroke-width="2"/>
  <path d="M145 173 l46-26 46 26 v53 l-46 26-46-26Z" fill="#21d0ad"/>
  <circle cx="1000" cy="146" r="78" fill="#0e2a25" stroke="#275a4f" stroke-width="2"/>
  <path d="M966 145 h68 M1000 111 v68" stroke="#e8c84d" stroke-width="18" stroke-linecap="round"/>
  <text x="92" y="385" fill="#f4fffc" font-family="Arial, sans-serif" font-size="82" font-weight="800">pickflow</text>
  <text x="96" y="448" fill="#b8d6cf" font-family="Arial, sans-serif" font-size="34" font-weight="600">고민을 투표 링크로 공유하고 빠르게 결정하세요</text>
  <rect x="96" y="494" width="430" height="12" rx="6" fill="url(#accent)"/>
  <text x="96" y="552" fill="#7ca59b" font-family="Arial, sans-serif" font-size="24">POLL · SHARE · DECIDE</text>
</svg>
